:SAMPLES-PER-SECOND 30
:FULLY-SPECIFIED
:DEGREES
491
root  -84.1051 41.6715 -1.49079 15.2476 86.8895 11.6234
RightUpLeg  -0.558737 -9.20177 -7.06854
RightLeg  5.57614 -7.46704 3.29349
RightFoot  -4.9382 -0.0905848 1.01992
RightToes  -4.65663e-010 0 -3.6325e-017
Spine  2.32069 0.938458 0.0510005
Spine1  1.34711 0.863429 0.820687
HEad  15.3019 4.34988 -0.88953
LeftShoulder1  0.184841 1.24523 0.421327
LeftArm  -20.843 11.1397 -4.40639
LeftForeArm  28.789 -12.0482 -1.32943
LeftHand  -0.244104 0.0205437 5.32207
RightShoulder  -0.114698 -4.8554 0.0511389
RightArm  -26.4407 0.304896 -2.696
RightForeArm  -10.4291 8.03336 3.41038
RightHand  -3.14573 9.70876 -24.1495
LeftUpLeg  -0.220136 3.24523 -0.497996
LeftLeg  2.43729 11.3422 -3.98242
LeftFoot  -4.93053 -0.102955 2.36773
LeftToes  -5.82109e-011 -4.83791e-012 -1.00937e-011
492
root  -84.0482 41.6122 -1.63615 12.2702 86.5855 8.98727
RightUpLeg  -0.988529 -9.83235 -7.37541
RightLeg  7.37344 -6.50692 3.13155
RightFoot  -5.60043 -0.117474 1.58404
RightToes  -4.65663e-010 0 -3.6325e-017
Spine  2.63168 1.10905 0.254466
Spine1  1.4662 1.06363 0.622596
HEad  15.2438 3.84239 -0.791036
LeftShoulder1  0.285358 0.756108 -2.03921
LeftArm  -22.3755 11.3858 -4.31156
LeftForeArm  28.1645 -14.5628 -1.48692
LeftHand  -0.244104 0.0205437 5.32207
RightShoulder  -0.0836353 -4.36152 1.52101
RightArm  -26.3424 -0.313338 -1.82714
RightForeArm  -13.8145 9.86775 3.95332
RightHand  -3.83088 11.3595 -26.434
LeftUpLeg  -0.22247 3.40027 -0.553434
LeftLeg  3.53689 11.425 -3.84564
LeftFoot  -5.8021 -0.0729807 2.23176
LeftToes  -5.82109e-011 -4.83791e-012 -1.00937e-011
493
root  -84.0131 41.5233 -1.79222 8.55261 85.8032 5.86847
RightUpLeg  -2.12988 -12.3222 -7.45226
RightLeg  10.7834 -3.43582 2.31071
RightFoot  -6.50325 -0.144254 2.39681
RightToes  -4.65663e-010 0 -3.6325e-017
Spine  3.52077 1.34318 0.291947
Spine1  1.51231 1.29826 0.522183
HEad  15.1598 3.14116 -0.836018
LeftShoulder1  0.450139 0.175265 -5.64113
LeftArm  -23.8988 12.1519 -3.98252
LeftForeArm  28.2556 -17.8405 -2.07233
LeftHand  -0.244104 0.0205437 5.32207
RightShoulder  0.00374803 -3.48462 3.91098
RightArm  -25.7699 -0.564259 -1.09711
RightForeArm  -15.1385 11.2646 4.37665
RightHand  -4.13538 11.9984 -27.4389
LeftUpLeg  0.024309 3.79442 -0.543451
LeftLeg  4.76395 11.739 -3.80612
LeftFoot  -6.9137 -0.0430163 2.19208
LeftToes  -5.82109e-011 -4.83791e-012 -1.00937e-011
494
root  -84.007 41.407 -1.94432 5.14766 84.4041 3.23203
RightUpLeg  -4.44312 -14.9085 -6.97243
RightLeg  15.9466 0.148773 0.661678
RightFoot  -6.76602 -0.218838 4.28513
RightToes  -4.65663e-010 0 -3.6325e-017
Spine  4.76765 1.61684 0.191377
Spine1  1.81248 1.57763 0.302841
HEad  14.7052 2.751 -0.910833
LeftShoulder1  0.626662 -0.148141 -9.70299
LeftArm  -25.4791 13.1497 -4.16826
LeftForeArm  29.7976 -21.2979 -2.88531
LeftHand  -0.244104 0.0205437 5.32207
RightShoulder  0.203108 -2.13498 7.15035
RightArm  -24.7772 -0.186956 -0.478739
RightForeArm  -12.9775 11.7648 4.55366
RightHand  -3.70375 11.0165 -26.0707
LeftUpLeg  0.380321 4.4042 -0.463543
LeftLeg  6.16873 12.4721 -3.80412
LeftFoot  -8.25591 -0.00870618 2.16155
LeftToes  -5.82109e-011 -4.83791e-012 -1.00937e-011
495
root  -84.021 41.2847 -2.08471 2.72491 82.5759 1.55774
RightUpLeg  -8.01953 -12.5888 -6.50418
RightLeg  22.7886 -1.28453 -0.942436
RightFoot  -5.27851 -0.402313 6.82521
RightToes  -4.65663e-010 0 -3.6325e-017
Spine  5.92401 1.93731 0.0760802
Spine1  2.56046 1.93192 -0.0980253
HEad  13.6845 3.08203 -0.915464
LeftShoulder1  0.866485 -0.618212 -13.8929
LeftArm  -26.714 14.0085 -5.15161
LeftForeArm  31.4562 -23.7854 -3.44727
LeftHand  -0.244104 0.0205437 5.32207
RightShoulder  0.503642 -0.689393 10.6792
RightArm  -23.5399 0.834049 0.631686
RightForeArm  -8.26936 11.507 4.58034
RightHand  -2.92868 9.25305 -23.2354
LeftUpLeg  0.668173 5.02959 -0.384157
LeftLeg  7.6293 13.6251 -3.6862
LeftFoot  -9.63759 0.027812 2.02361
LeftToes  -5.82109e-011 -4.83791e-012 -1.00937e-011
496
root  -84.0212 41.1905 -2.21181 0.981818 80.8533 0.41864
RightUpLeg  -12.3198 -10.0372 -6.17472
RightLeg  30.3882 -3.99515 -2.76131
RightFoot  -1.91878 -0.678254 8.11488
RightToes  -4.65663e-010 0 -3.6325e-017
Spine  6.84365 2.20221 0.00703443
Spine1  3.40103 2.22428 -0.371014
HEad  12.5288 3.86001 -0.964093
LeftShoulder1  1.32831 -1.77791 -18.3931
LeftArm  -27.4006 14.4184 -6.50083
LeftForeArm  32.1027 -24.1342 -3.48295
LeftHand  -0.244104 0.0205437 5.32207
RightShoulder  0.861506 0.611207 14.0474
RightArm  -22.2964 1.96857 2.5614
RightForeArm  -3.13394 11.1568 4.57376
RightHand  -2.36718 7.92529 -20.7646
LeftUpLeg  0.986052 5.50995 -0.32646
LeftLeg  8.67756 14.8439 -3.50147
LeftFoot  -10.7274 0.0540302 1.98856
LeftToes  -5.82109e-011 -4.83791e-012 -1.00937e-011
497
root  -83.9654 41.1491 -2.3197 -0.589674 79.8296 -0.69693
RightUpLeg  -16.3267 -9.77595 -5.55756
RightLeg  36.5643 -5.19893 -4.36154
RightFoot  1.66372 -0.807407 7.2017
RightToes  -4.65663e-010 0 -3.6325e-017
Spine  7.62157 2.18064 -0.117355
Spine1  4.01819 2.14606 -0.154649
HEad  11.7038 4.78183 -1.24166
LeftShoulder1  2.01808 -3.31914 -23.2012
LeftArm  -27.5256 14.0439 -8.0866
LeftForeArm  31.9637 -22.3027 -3.02874
LeftHand  -0.244104 0.0205437 5.32207
RightShoulder  1.27667 1.82402 17.3449
RightArm  -21.3416 2.67891 5.08195
RightForeArm  0.813616 11.261 4.55619
RightHand  -2.11181 7.27122 -19.5129
LeftUpLeg  1.51633 5.7973 -0.234456
LeftLeg  9.01412 15.5808 -3.4232
LeftFoot  -11.3439 0.0682171 2.1567
LeftToes  -5.82109e-011 -4.83791e-012 -1.00937e-011
